<svg aria-roledescription="er" viewBox="0 0 468.5 321" style="max-width: 468.5px; background-color: white;" xmlns:xlink="http://www.w3.org/1999/xlink" xmlns="http://www.w3.org/2000/svg" width="100%" id="mermaid-0"><style>#mermaid-0{font-family:"trebuchet ms",verdana,arial,sans-serif;font-size:16px;fill:#000000;}#mermaid-0 .error-icon{fill:#552222;}#mermaid-0 .error-text{fill:#552222;stroke:#552222;}#mermaid-0 .edge-thickness-normal{stroke-width:2px;}#mermaid-0 .edge-thickness-thick{stroke-width:3.5px;}#mermaid-0 .edge-pattern-solid{stroke-dasharray:0;}#mermaid-0 .edge-pattern-dashed{stroke-dasharray:3;}#mermaid-0 .edge-pattern-dotted{stroke-dasharray:2;}#mermaid-0 .marker{fill:#000000;stroke:#000000;}#mermaid-0 .marker.cross{stroke:#000000;}#mermaid-0 svg{font-family:"trebuchet ms",verdana,arial,sans-serif;font-size:16px;}#mermaid-0 .entityBox{fill:#cde498;stroke:#13540c;}#mermaid-0 .attributeBoxOdd{fill:#ffffff;stroke:#13540c;}#mermaid-0 .attributeBoxEven{fill:#f2f2f2;stroke:#13540c;}#mermaid-0 .relationshipLabelBox{fill:hsl(78.1578947368, 58.4615384615%, 84.5098039216%);opacity:0.7;background-color:hsl(78.1578947368, 58.4615384615%, 84.5098039216%);}#mermaid-0 .relationshipLabelBox rect{opacity:0.5;}#mermaid-0 .relationshipLine{stroke:#000000;}#mermaid-0 .entityTitleText{text-anchor:middle;font-size:18px;fill:#000000;}#mermaid-0 :root{--mermaid-font-family:"trebuchet ms",verdana,arial,sans-serif;}</style><g/><defs><marker orient="auto" markerHeight="18" markerWidth="18" refY="9" refX="0" id="ONLY_ONE_START"><path d="M9,0 L9,18 M15,0 L15,18" fill="none" stroke="gray"/></marker></defs><defs><marker orient="auto" markerHeight="18" markerWidth="18" refY="9" refX="18" id="ONLY_ONE_END"><path d="M3,0 L3,18 M9,0 L9,18" fill="none" stroke="gray"/></marker></defs><defs><marker orient="auto" markerHeight="18" markerWidth="30" refY="9" refX="0" id="ZERO_OR_ONE_START"><circle r="6" cy="9" cx="21" fill="white" stroke="gray"/><path d="M9,0 L9,18" fill="none" stroke="gray"/></marker></defs><defs><marker orient="auto" markerHeight="18" markerWidth="30" refY="9" refX="30" id="ZERO_OR_ONE_END"><circle r="6" cy="9" cx="9" fill="white" stroke="gray"/><path d="M21,0 L21,18" fill="none" stroke="gray"/></marker></defs><defs><marker orient="auto" markerHeight="36" markerWidth="45" refY="18" refX="18" id="ONE_OR_MORE_START"><path d="M0,18 Q 18,0 36,18 Q 18,36 0,18 M42,9 L42,27" fill="none" stroke="gray"/></marker></defs><defs><marker orient="auto" markerHeight="36" markerWidth="45" refY="18" refX="27" id="ONE_OR_MORE_END"><path d="M3,9 L3,27 M9,18 Q27,0 45,18 Q27,36 9,18" fill="none" stroke="gray"/></marker></defs><defs><marker orient="auto" markerHeight="36" markerWidth="57" refY="18" refX="18" id="ZERO_OR_MORE_START"><circle r="6" cy="18" cx="48" fill="white" stroke="gray"/><path d="M0,18 Q18,0 36,18 Q18,36 0,18" fill="none" stroke="gray"/></marker></defs><defs><marker orient="auto" markerHeight="36" markerWidth="57" refY="18" refX="39" id="ZERO_OR_MORE_END"><circle r="6" cy="18" cx="9" fill="white" stroke="gray"/><path d="M21,18 Q39,0 57,18 Q39,36 21,18" fill="none" stroke="gray"/></marker></defs><path style="stroke: gray; fill: none;" marker-start="url(#ZERO_OR_MORE_START)" marker-end="url(#ONLY_ONE_END)" d="M81.5,98L81.5,106.33333333333333C81.5,114.66666666666667,81.5,131.33333333333334,85.60509031198687,148C89.71018062397373,164.66666666666666,97.92036124794747,181.33333333333334,102.02545155993431,189.66666666666666L106.13054187192118,198" class="er relationshipLine"/><path style="stroke: gray; fill: none;" marker-start="url(#ZERO_OR_MORE_START)" marker-end="url(#ONLY_ONE_END)" d="M361.3876404494382,85.5L367.2397003745318,95.91666666666667C373.0917602996255,106.33333333333333,384.7958801498127,127.16666666666667,390.64794007490633,148C396.5,168.83333333333334,396.5,189.66666666666666,396.5,200.08333333333334L396.5,210.5" class="er relationshipLine"/><path style="stroke: gray; fill: none;" marker-start="url(#ZERO_OR_MORE_START)" marker-end="url(#ONLY_ONE_END)" d="M313.97050561797755,85.5L301.18375468164794,95.91666666666667C288.3970037453184,106.33333333333333,262.82350187265916,127.16666666666667,241.3544849264774,145.91666666666666C219.88546798029554,164.66666666666666,202.52093596059112,181.33333333333334,193.8386699507389,189.66666666666666L185.1564039408867,198" class="er relationshipLine"/><g transform="translate(65,198 )" id="entity-habits-245ae382-7091-47a5-9fbe-1c8777a558ec"><rect height="103" width="133" y="0" x="0" class="er entityBox"/><text style="dominant-baseline: middle; text-anchor: middle; font-size: 12px;" transform="translate(66.5,14)" y="0" x="0" id="text-entity-habits-245ae382-7091-47a5-9fbe-1c8777a558ec" class="er entityLabel">habits</text><rect height="25" width="52" y="28" x="0" class="er attributeBoxOdd"/><text style="dominant-baseline: middle; font-size: 10.2px;" transform="translate(5,40.5)" y="0" x="0" id="text-entity-habits-245ae382-7091-47a5-9fbe-1c8777a558ec-attr-1-type" class="er entityLabel">String</text><rect height="25" width="59" y="28" x="52" class="er attributeBoxOdd"/><text style="dominant-baseline: middle; font-size: 10.2px;" transform="translate(57,40.5)" y="0" x="0" id="text-entity-habits-245ae382-7091-47a5-9fbe-1c8777a558ec-attr-1-name" class="er entityLabel">id</text><rect height="25" width="22" y="28" x="111" class="er attributeBoxOdd"/><text style="dominant-baseline: middle; font-size: 10.2px;" transform="translate(116,40.5)" y="0" x="0" id="text-entity-habits-245ae382-7091-47a5-9fbe-1c8777a558ec-attr-1-key" class="er entityLabel">PK</text><rect height="25" width="52" y="53" x="0" class="er attributeBoxEven"/><text style="dominant-baseline: middle; font-size: 10.2px;" transform="translate(5,65.5)" y="0" x="0" id="text-entity-habits-245ae382-7091-47a5-9fbe-1c8777a558ec-attr-2-type" class="er entityLabel">String</text><rect height="25" width="59" y="53" x="52" class="er attributeBoxEven"/><text style="dominant-baseline: middle; font-size: 10.2px;" transform="translate(57,65.5)" y="0" x="0" id="text-entity-habits-245ae382-7091-47a5-9fbe-1c8777a558ec-attr-2-name" class="er entityLabel">title</text><rect height="25" width="22" y="53" x="111" class="er attributeBoxEven"/><text style="dominant-baseline: middle; font-size: 10.2px;" transform="translate(116,65.5)" y="0" x="0" id="text-entity-habits-245ae382-7091-47a5-9fbe-1c8777a558ec-attr-2-key" class="er entityLabel"/><rect height="25" width="52" y="78" x="0" class="er attributeBoxOdd"/><text style="dominant-baseline: middle; font-size: 10.2px;" transform="translate(5,90.5)" y="0" x="0" id="text-entity-habits-245ae382-7091-47a5-9fbe-1c8777a558ec-attr-3-type" class="er entityLabel">DateTime</text><rect height="25" width="59" y="78" x="52" class="er attributeBoxOdd"/><text style="dominant-baseline: middle; font-size: 10.2px;" transform="translate(57,90.5)" y="0" x="0" id="text-entity-habits-245ae382-7091-47a5-9fbe-1c8777a558ec-attr-3-name" class="er entityLabel">created_at</text><rect height="25" width="22" y="78" x="111" class="er attributeBoxOdd"/><text style="dominant-baseline: middle; font-size: 10.2px;" transform="translate(116,90.5)" y="0" x="0" id="text-entity-habits-245ae382-7091-47a5-9fbe-1c8777a558ec-attr-3-key" class="er entityLabel"/></g><g transform="translate(20,20 )" id="entity-habitweekdays-7743b1dd-e20a-4308-a360-75855c113572"><rect height="78" width="123" y="0" x="0" class="er entityBox"/><text style="dominant-baseline: middle; text-anchor: middle; font-size: 12px;" transform="translate(61.5,14)" y="0" x="0" id="text-entity-habitweekdays-7743b1dd-e20a-4308-a360-75855c113572" class="er entityLabel">habit_week_days</text><rect height="25" width="40.666666666666664" y="28" x="0" class="er attributeBoxOdd"/><text style="dominant-baseline: middle; font-size: 10.2px;" transform="translate(5,40.5)" y="0" x="0" id="text-entity-habitweekdays-7743b1dd-e20a-4308-a360-75855c113572-attr-1-type" class="er entityLabel">String</text><rect height="25" width="56.666666666666664" y="28" x="40.666666666666664" class="er attributeBoxOdd"/><text style="dominant-baseline: middle; font-size: 10.2px;" transform="translate(45.666666666666664,40.5)" y="0" x="0" id="text-entity-habitweekdays-7743b1dd-e20a-4308-a360-75855c113572-attr-1-name" class="er entityLabel">id</text><rect height="25" width="25.666666666666668" y="28" x="97.33333333333333" class="er attributeBoxOdd"/><text style="dominant-baseline: middle; font-size: 10.2px;" transform="translate(102.33333333333333,40.5)" y="0" x="0" id="text-entity-habitweekdays-7743b1dd-e20a-4308-a360-75855c113572-attr-1-key" class="er entityLabel">PK</text><rect height="25" width="40.666666666666664" y="53" x="0" class="er attributeBoxEven"/><text style="dominant-baseline: middle; font-size: 10.2px;" transform="translate(5,65.5)" y="0" x="0" id="text-entity-habitweekdays-7743b1dd-e20a-4308-a360-75855c113572-attr-2-type" class="er entityLabel">Int</text><rect height="25" width="56.666666666666664" y="53" x="40.666666666666664" class="er attributeBoxEven"/><text style="dominant-baseline: middle; font-size: 10.2px;" transform="translate(45.666666666666664,65.5)" y="0" x="0" id="text-entity-habitweekdays-7743b1dd-e20a-4308-a360-75855c113572-attr-2-name" class="er entityLabel">week_day</text><rect height="25" width="25.666666666666668" y="53" x="97.33333333333333" class="er attributeBoxEven"/><text style="dominant-baseline: middle; font-size: 10.2px;" transform="translate(102.33333333333333,65.5)" y="0" x="0" id="text-entity-habitweekdays-7743b1dd-e20a-4308-a360-75855c113572-attr-2-key" class="er entityLabel"/></g><g transform="translate(344.5,210.5 )" id="entity-days-bf465528-a4bb-4d78-8b95-e0ab5a9ab702"><rect height="78" width="104" y="0" x="0" class="er entityBox"/><text style="dominant-baseline: middle; text-anchor: middle; font-size: 12px;" transform="translate(52,14)" y="0" x="0" id="text-entity-days-bf465528-a4bb-4d78-8b95-e0ab5a9ab702" class="er entityLabel">days</text><rect height="25" width="52" y="28" x="0" class="er attributeBoxOdd"/><text style="dominant-baseline: middle; font-size: 10.2px;" transform="translate(5,40.5)" y="0" x="0" id="text-entity-days-bf465528-a4bb-4d78-8b95-e0ab5a9ab702-attr-1-type" class="er entityLabel">String</text><rect height="25" width="30" y="28" x="52" class="er attributeBoxOdd"/><text style="dominant-baseline: middle; font-size: 10.2px;" transform="translate(57,40.5)" y="0" x="0" id="text-entity-days-bf465528-a4bb-4d78-8b95-e0ab5a9ab702-attr-1-name" class="er entityLabel">id</text><rect height="25" width="22" y="28" x="82" class="er attributeBoxOdd"/><text style="dominant-baseline: middle; font-size: 10.2px;" transform="translate(87,40.5)" y="0" x="0" id="text-entity-days-bf465528-a4bb-4d78-8b95-e0ab5a9ab702-attr-1-key" class="er entityLabel">PK</text><rect height="25" width="52" y="53" x="0" class="er attributeBoxEven"/><text style="dominant-baseline: middle; font-size: 10.2px;" transform="translate(5,65.5)" y="0" x="0" id="text-entity-days-bf465528-a4bb-4d78-8b95-e0ab5a9ab702-attr-2-type" class="er entityLabel">DateTime</text><rect height="25" width="30" y="53" x="52" class="er attributeBoxEven"/><text style="dominant-baseline: middle; font-size: 10.2px;" transform="translate(57,65.5)" y="0" x="0" id="text-entity-days-bf465528-a4bb-4d78-8b95-e0ab5a9ab702-attr-2-name" class="er entityLabel">date</text><rect height="25" width="22" y="53" x="82" class="er attributeBoxEven"/><text style="dominant-baseline: middle; font-size: 10.2px;" transform="translate(87,65.5)" y="0" x="0" id="text-entity-days-bf465528-a4bb-4d78-8b95-e0ab5a9ab702-attr-2-key" class="er entityLabel"/></g><g transform="translate(296.5,32.5 )" id="entity-dayhabits-0fbd1d14-3ad3-4639-9d8c-207639eccdc6"><rect height="53" width="100" y="0" x="0" class="er entityBox"/><text style="dominant-baseline: middle; text-anchor: middle; font-size: 12px;" transform="translate(50,14)" y="0" x="0" id="text-entity-dayhabits-0fbd1d14-3ad3-4639-9d8c-207639eccdc6" class="er entityLabel">day_habits</text><rect height="25" width="44.333333333333336" y="28" x="0" class="er attributeBoxOdd"/><text style="dominant-baseline: middle; font-size: 10.2px;" transform="translate(5,40.5)" y="0" x="0" id="text-entity-dayhabits-0fbd1d14-3ad3-4639-9d8c-207639eccdc6-attr-1-type" class="er entityLabel">String</text><rect height="25" width="26.333333333333332" y="28" x="44.333333333333336" class="er attributeBoxOdd"/><text style="dominant-baseline: middle; font-size: 10.2px;" transform="translate(49.333333333333336,40.5)" y="0" x="0" id="text-entity-dayhabits-0fbd1d14-3ad3-4639-9d8c-207639eccdc6-attr-1-name" class="er entityLabel">id</text><rect height="25" width="29.333333333333332" y="28" x="70.66666666666667" class="er attributeBoxOdd"/><text style="dominant-baseline: middle; font-size: 10.2px;" transform="translate(75.66666666666667,40.5)" y="0" x="0" id="text-entity-dayhabits-0fbd1d14-3ad3-4639-9d8c-207639eccdc6-attr-1-key" class="er entityLabel">PK</text></g><rect height="18" width="28" y="140.8674774169922" x="72.08204650878906" class="er relationshipLabelBox"/><text style="text-anchor: middle; dominant-baseline: middle; font-size: 12px;" y="149.8674774169922" x="86.08204650878906" id="rel1" class="er relationshipLabel">habit</text><rect height="18" width="19" y="136.0330352783203" x="380.27581787109375" class="er relationshipLabelBox"/><text style="text-anchor: middle; dominant-baseline: middle; font-size: 12px;" y="145.0330352783203" x="389.77581787109375" id="rel2" class="er relationshipLabel">day</text><rect height="18" width="28" y="131.07608032226562" x="234.09471130371094" class="er relationshipLabelBox"/><text style="text-anchor: middle; dominant-baseline: middle; font-size: 12px;" y="140.07608032226562" x="248.09471130371094" id="rel3" class="er relationshipLabel">habit</text></svg>